<?xml version="1.0" encoding="UTF-8"?>
<svg id="Objects" xmlns="http://www.w3.org/2000/svg" xmlns:xlink="http://www.w3.org/1999/xlink" viewBox="0 0 800 800">
  <defs>
    <style>
      .cls-1, .cls-2, .cls-3 {
        fill: none;
      }

      .cls-4 {
        font-size: 154.564px;
      }

      .cls-4, .cls-5, .cls-6, .cls-7 {
        fill: #eceded;
      }

      .cls-4, .cls-6 {
        font-family: BrushScriptMT, 'Brush Script MT';
      }

      .cls-2 {
        stroke: #d9d9d9;
        stroke-width: 3px;
      }

      .cls-2, .cls-3 {
        stroke-miterlimit: 10;
      }

      .cls-8 {
        fill: url(#linear-gradient);
      }

      .cls-9 {
        clip-path: url(#clippath);
      }

      .cls-10, .cls-11 {
        fill: #020129;
      }

      .cls-12 {
        clip-path: url(#clippath-1);
      }

      .cls-13 {
        clip-path: url(#clippath-4);
      }

      .cls-14 {
        clip-path: url(#clippath-2);
      }

      .cls-5, .cls-11 {
        fill-rule: evenodd;
      }

      .cls-3 {
        stroke: url(#linear-gradient-2);
        stroke-width: 19px;
      }

      .cls-6 {
        font-size: 89.484px;
      }

      .cls-7 {
        font-family: Avenir-MediumOblique, Avenir;
        font-size: 223.521px;
        font-style: oblique;
        font-weight: 500;
      }
    </style>
    <clipPath id="clippath">
      <circle class="cls-1" cx="400" cy="400" r="268.353" transform="translate(-165.685 400) rotate(-45)"/>
    </clipPath>
    <clipPath id="clippath-1">
      <rect class="cls-1" x="265.157" y="313.754" width="286.347" height="137.932"/>
    </clipPath>
    <linearGradient id="linear-gradient" x1="212.857" y1="399.683" x2="590.07" y2="399.683" gradientUnits="userSpaceOnUse">
      <stop offset="0" stop-color="#29e7ea"/>
      <stop offset="1" stop-color="#3cf886"/>
    </linearGradient>
    <clipPath id="clippath-2">
      <rect class="cls-1" x="265.157" y="313.754" width="286.347" height="137.932"/>
    </clipPath>
    <clipPath id="clippath-4">
      <rect class="cls-1" x="305.84" y="313.696" width="174.382" height="34.832"/>
    </clipPath>
    <linearGradient id="linear-gradient-2" x1="131.284" y1="400" x2="668.716" y2="400" gradientTransform="translate(400 -165.686) rotate(45)" gradientUnits="userSpaceOnUse">
      <stop offset="0" stop-color="#474fff"/>
      <stop offset="1" stop-color="#47ff7b"/>
    </linearGradient>
  </defs>
  <g>
    <g class="cls-9">
      <rect class="cls-10" x="-589.139" y="-238.658" width="1889.492" height="1889.492"/>
    </g>
    <circle class="cls-2" cx="400.048" cy="400.012" r="248.117" transform="translate(-165.68 400.037) rotate(-45)"/>
    <g>
      <g>
        <g>
          <g>
            <text class="cls-4" transform="translate(249.159 442.858)"><tspan x="0" y="0">S</tspan></text>
            <text class="cls-6" transform="translate(406.471 390.516)"><tspan x="0" y="0">ay</tspan><tspan x="0" y="56.944">uned</tspan></text>
            <g class="cls-12">
              <g>
                <text class="cls-7" transform="translate(302.963 478.203)"><tspan x="0" y="0">T</tspan></text>
                <path class="cls-5" d="m450.932,319.952h93.012c-.97,6.71-1.94,13.42-2.91,20.129h-93.006"/>
                <polygon class="cls-5" points="327.551 319.95 278.613 319.95 275.703 340.081 324.642 340.081 327.551 319.95"/>
              </g>
            </g>
          </g>
          <g>
            <path class="cls-5" d="m497.058,319.952h93.012c-.97,6.71-1.94,13.42-2.91,20.129h-93.006"/>
            <path class="cls-5" d="m547.611,473.769c4.41-30.689,8.819-61.378,13.229-92.067,6.504,1.914,13.007,3.829,19.511,5.743-4.409,30.687-8.819,61.374-13.228,92.061"/>
            <path class="cls-5" d="m556.49,412.019c4.41-30.689,8.819-61.378,13.229-92.067,6.504,1.914,13.007,3.829,19.511,5.743-4.409,30.687-8.819,61.374-13.228,92.061"/>
            <path class="cls-5" d="m214.569,473.769c4.41-30.689,8.819-61.378,13.229-92.067,6.504,1.914,13.007,3.829,19.511,5.743-4.409,30.687-8.819,61.374-13.228,92.061"/>
            <path class="cls-5" d="m223.448,412.02c4.41-30.689,8.819-61.378,13.229-92.067,6.504,1.914,13.007,3.829,19.511,5.743-4.409,30.687-8.819,61.374-13.228,92.061"/>
            <path class="cls-5" d="m215.761,465.483h93.012c-.97,6.71-1.94,13.42-2.91,20.129h-93.006"/>
            <path class="cls-5" d="m308.744,465.483h93.012c-.97,6.71-1.94,13.42-2.91,20.129h-93.006"/>
            <path class="cls-5" d="m398.602,465.483h93.012c-.97,6.71-1.94,13.42-2.91,20.129h-93.006"/>
            <path class="cls-5" d="m476.124,465.483h93.012c-.97,6.71-1.94,13.42-2.91,20.129h-93.006"/>
            <path class="cls-5" d="m236.688,319.952h93.012c-.97,6.71-1.94,13.42-2.91,20.129h-93.006"/>
          </g>
        </g>
        <g>
          <g>
            <path class="cls-8" d="m328.479,421.048c-1.258-2.314-3.145-4.402-5.66-6.265-2.518-1.86-5.348-3.358-8.49-4.49-3.146-1.132-6.429-1.975-9.85-2.528-10.164-1.51-19.648-4.805-28.452-9.887-.755-.402-1.56-1.257-2.415-2.566-.856-1.308-1.283-2.565-1.283-3.773,0-4.427.742-8.867,2.227-13.32,1.483-4.453,3.383-7.937,5.698-10.453,3.723-4.175,10.427-7.822,20.113-10.942,9.685-3.119,20.589-4.68,32.716-4.68,7.246,0,12.842.555,16.793,1.66,3.949,1.107,5.924,2.818,5.924,5.133,0,3.773-.518,6.691-1.547,8.754-1.033,2.063-2.139,3.435-3.32,4.113-1.184.68-3.26,1.598-6.227,2.755-3.17,1.107-5.926,2.264-8.264,3.472-2.34,1.207-4.34,2.365-6,3.472-1.662,1.107-2.693,1.66-3.096,1.66-.504,0-.754-.2-.754-.604,0-.855.893-2.151,2.68-3.887,1.785-1.736,3.986-3.257,6.604-4.566,2.766-1.459,4.15-2.389,4.15-2.792,0-.653-1.535-.981-4.604-.981-9.309,0-17.912.83-25.811,2.49-7.9,1.661-14.126,3.85-18.679,6.566-4.554,2.717-6.83,5.484-6.83,8.302,0,1.762.943,3.007,2.83,3.735,1.887.73,6.049,1.951,12.491,3.661,6.439,1.711,12.201,3.673,17.283,5.887,7.295,3.121,12.703,6.366,16.227,9.736,3.521,3.371,5.283,7.145,5.283,11.32,0,2.868-.693,5.749-2.076,8.642-1.385,2.894-3.41,5.547-6.076,7.962s-5.734,4.402-9.207,5.962c-2.969,1.258-6.705,2.44-11.207,3.548-4.503,1.105-9.384,1.974-14.641,2.604-5.258.629-10.277.943-15.057.943-8.805,0-15.887-.83-21.245-2.49-5.358-1.661-8.038-4.177-8.038-7.548,0-1.509.906-3.86,2.717-7.056,1.811-3.195,3.949-5.346,6.415-6.453,2.163-.854,4.251-1.346,6.264-1.472,2.012-.125,3.019.113,3.019.717,0,.151-.076.302-.227.453-.151.15-.328.277-.528.377-.202.102-.403.202-.604.302-1.007.403-1.824.718-2.453.943-.629.227-1.132.453-1.509.68s-.566.541-.566.943c0,1.057,5.208,1.585,15.623,1.585,9.056,0,16.477-.327,22.264-.981,5.785-.653,10.892-1.836,15.32-3.547,4.428-1.71,8.453-4.075,12.076-7.094Z"/>
            <g>
              <path class="cls-8" d="m412.283,368.931c4.427-4.02,8.724-7.005,12.89-8.957,4.165-1.951,7.384-2.927,9.656-2.927.611,0,1.18.255,1.704.764.524.511.939,1.101,1.245,1.771s.459,1.165.459,1.485c0,.524-.204.91-.612,1.157-.408.248-1.121.547-2.141.896.203.466.466,1.063.786,1.791.32.729.568,1.318.743,1.77.175.452.262.853.262,1.202,0,.698-.706,2.003-2.119,3.91-1.413,1.908-2.403,3.313-2.971,4.217-.568.903-.853,2.01-.853,3.32,0,2.156.99,3.233,2.972,3.233,2.038,0,5.228-1.907,9.568-5.724v2.665c-7.369,8.186-12.643,12.278-15.816,12.278-1.137,0-1.944-.372-2.426-1.114-.48-.743-.721-1.843-.721-3.299,0-2.301.83-5.637,2.49-10.006-4.253,4.719-7.413,8.076-9.481,10.071s-3.772,2.993-5.111,2.993c-.642,0-1.442-.554-2.403-1.661-.962-1.106-1.813-2.541-2.557-4.304-.742-1.762-1.114-3.59-1.114-5.483,0-1.369.132-2.513.394-3.43.263-.918.771-1.857,1.529-2.818.757-.961,1.967-2.229,3.627-3.802Zm20.929-4.806c-7.574,3.467-12.97,6.408-16.188,8.826s-4.828,4.908-4.828,7.472c0,.933.16,1.697.48,2.294s.758.896,1.312.896c.32,0,.888-.204,1.704-.612,3.059-1.806,5.854-4.157,8.389-7.057,2.534-2.897,5.578-6.838,9.132-11.818Z"/>
              <path class="cls-8" d="m463.623,378.457l-7.777,6.598c-3.699,3.233-6.176,4.851-7.428,4.851-1.137,0-2.331-1.304-3.583-3.911-1.253-2.606-1.879-4.886-1.879-6.838,0-1.66.255-3.065.765-4.217.509-1.15,1.391-2.643,2.644-4.479,1.776-2.476,3.48-4.572,5.112-6.292,1.631-1.718,3.072-3.051,4.325-3.997,1.252-.946,2.126-1.421,2.622-1.421.786,0,1.551.409,2.294,1.224.742.816,1.114,1.66,1.114,2.534,0,.554-.401,1.442-1.202,2.666-.802,1.223-2.068,2.774-3.801,4.653-1.733,1.878-4.145,4.129-7.231,6.75l-.83,2.403c-.233.467-.35.874-.35,1.224,0,.786.393,1.18,1.18,1.18.814,0,2.73-1.034,5.745-3.103,3.016-2.067,6.285-4.85,9.81-8.346,1.369-1.368,2.505-2.577,3.408-3.626.902-1.049,1.719-2.032,2.446-2.949.729-.918,1.333-1.609,1.813-2.076.48-.465.91-.713,1.289-.742.728-.088,1.296.219,1.704.917.407.699.611,1.733.611,3.103,0,.787-.349,1.77-1.048,2.949s-2.01,3.189-3.933,6.03c-1.923,2.84-3.838,5.782-5.746,8.826s-3.853,6.474-5.833,10.289c.088-.087.983-.961,2.688-2.621s3.502-3.394,5.396-5.199c1.894-1.807,3.452-3.256,4.676-4.348,1.224-1.093,2.753-2.366,4.588-3.823v2.927c-3.933,4.225-7.493,8.229-10.684,12.017-3.189,3.786-5.651,6.815-7.384,9.088-1.733,2.273-2.746,3.597-3.037,3.976-.786,1.02-1.493,1.974-2.119,2.862s-1.15,1.573-1.572,2.054c-.423.48-.765.721-1.027.721-.611,0-1.157-.604-1.639-1.813-.48-1.209-.721-2.279-.721-3.211,0-.846.16-1.588.48-2.229,2.098-4.719,6.802-12.918,14.113-24.6Z"/>
              <path class="cls-8" d="m427.75,430.727c-4.224,5.593-7.435,9.568-9.634,11.928-2.2,2.359-3.998,3.539-5.396,3.539-1.107,0-2.127-.458-3.059-1.376-.933-.917-1.653-2.155-2.163-3.714-.51-1.558-.765-3.226-.765-5.003,0-1.165.109-2.213.328-3.146s.634-1.959,1.245-3.081c.612-1.121,1.42-2.337,2.425-3.648,1.005-1.311,2.235-2.796,3.692-4.456.874-1.02,1.609-1.879,2.207-2.578.597-.699,1.18-1.173,1.747-1.42.568-.247,1.492-.372,2.774-.372.933,0,1.82.125,2.666.372.844.247,1.267.502,1.267.765,0,.524-.43,1.471-1.289,2.84s-2.243,3.037-4.15,5.003c-1.908,1.966-4.115,3.896-6.62,5.789-.554,1.72-.83,3.03-.83,3.933,0,1.253.48,1.879,1.442,1.879.35,0,.932-.299,1.747-.896s2.192-1.748,4.13-3.452c1.937-1.704,3.677-3.211,5.221-4.522,1.137-.989,2.454-2.469,3.954-4.435s2.716-3.444,3.648-4.435c2.155-2.272,3.627-3.751,4.413-4.436.787-.684,1.544-1.026,2.272-1.026.699,0,1.172.219,1.42.655.247.437.371,1.326.371,2.665,0,.612-.059,1.107-.175,1.486-.116.378-.356.866-.721,1.463-.364.598-1.1,1.697-2.206,3.299-1.107,1.603-2.419,3.496-3.933,5.681-.816,1.165-1.529,2.439-2.142,3.823-.611,1.384-.917,2.425-.917,3.124,0,1.515.597,2.271,1.791,2.271.99,0,2.142-.407,3.452-1.223s3.32-2.287,6.029-4.413v2.927c-3.408,3.146-5.928,5.434-7.559,6.86-1.632,1.428-3.044,2.506-4.238,3.233-1.194.729-2.331,1.092-3.408,1.092-2.446,0-3.67-1.456-3.67-4.369,0-1.106.363-2.6,1.092-4.479s1.908-4.595,3.539-8.148Z"/>
              <path class="cls-8" d="m471.051,425.789c-5.127,5.709-7.69,9.686-7.69,11.928,0,1.253.51,1.879,1.529,1.879.845,0,1.944-.443,3.299-1.332s3.474-2.469,6.357-4.741v3.015c-4.136,4.079-7.312,7.021-9.524,8.826-2.214,1.807-4.021,2.709-5.418,2.709-2.389,0-3.583-1.572-3.583-4.719,0-.932.146-1.85.437-2.753.291-.902.691-1.842,1.202-2.817.509-.976,1.289-2.374,2.337-4.195,1.049-1.819,2.258-3.881,3.627-6.183-1.66.846-3.743,2.521-6.248,5.025-1.632,1.572-3.015,3.065-4.151,4.479-1.136,1.413-2.353,2.986-3.648,4.719-1.296,1.733-2.243,2.898-2.84,3.495s-1.201.896-1.813.896c-.933,0-1.791-.976-2.578-2.928-.786-1.951-1.18-4.224-1.18-6.816,0-1.602.182-2.854.547-3.758.363-.902,1.085-2.185,2.162-3.845,2.011-3.087,3.743-5.353,5.2-6.795,1.456-1.441,2.854-2.162,4.194-2.162.932,0,1.683.16,2.25.48.568.32.853.815.853,1.485,0,.292-.088.598-.263.918s-.371.611-.59.874c-.218.262-.677.771-1.376,1.529-4.603,5.098-6.903,8.403-6.903,9.918,0,.845.276,1.268.83,1.268.35,0,1.026-.561,2.031-1.683,1.005-1.121,2.301-2.593,3.889-4.413s3.467-3.721,5.637-5.702c2.17-1.98,4.639-3.889,7.406-5.724,1.543-1.077,2.825-1.617,3.845-1.617.466,0,.925.642,1.376,1.923.452,1.282.678,2.578.678,3.889,0,.642-.627,1.617-1.879,2.928Z"/>
              <path class="cls-8" d="m481.275,435.271v1.092c0,1.72.422,3.059,1.267,4.021.845.961,1.951,1.441,3.321,1.441,1.427,0,2.905-.334,4.435-1.005,1.529-.67,3.051-1.558,4.565-2.665,1.515-1.106,3.365-2.593,5.55-4.457v2.665c-3.292,3.962-6.38,6.999-9.264,9.11-2.884,2.112-5.811,3.168-8.782,3.168-2.593,0-4.646-1.005-6.16-3.015-1.516-2.01-2.272-4.763-2.272-8.258,0-3.059.713-5.834,2.141-8.324,1.427-2.49,3.758-5.119,6.991-7.887,2.214-1.893,4.413-3.32,6.598-4.282,2.185-.961,4.136-1.441,5.855-1.441,1.368,0,2.453.313,3.255.939.801.627,1.201,1.566,1.201,2.818,0,1.835-.685,3.663-2.054,5.483s-3.459,3.627-6.27,5.418c-2.812,1.791-6.271,3.518-10.377,5.178Zm.437-2.84c2.622-1.02,4.864-2.287,6.729-3.802,1.864-1.514,3.24-2.964,4.129-4.348.889-1.383,1.333-2.396,1.333-3.036,0-.67-.306-1.005-.917-1.005-.524,0-1.377.335-2.557,1.005s-2.374,1.544-3.583,2.621c-1.209,1.078-2.294,2.346-3.255,3.802-.961,1.457-1.588,3.044-1.879,4.763Z"/>
              <path class="cls-8" d="m520.381,433.785c-2.563,2.913-4.857,5.389-6.882,7.428s-3.67,3.561-4.938,4.565c-1.267,1.005-2.134,1.508-2.6,1.508-.758,0-1.609-.611-2.556-1.835-.947-1.224-1.756-2.781-2.425-4.676-.671-1.893-1.006-3.815-1.006-5.768,0-2.824,1.369-5.672,4.107-8.542,2.738-2.868,5.855-5.25,9.351-7.144s6.117-2.84,7.865-2.84c1.427,0,2.824.903,4.194,2.709,2.242-4.689,4.376-8.854,6.401-12.496,2.023-3.642,3.721-6.351,5.09-8.127,1.369-1.777,2.345-2.666,2.928-2.666.641,0,1.23.313,1.77.939.538.627.809,1.333.809,2.119,0,1.515-1.107,4.116-3.321,7.8s-4.398,7.274-6.554,10.771c-2.156,3.495-4.006,6.94-5.549,10.333-1.545,3.394-2.316,6.532-2.316,9.416,0,2.622.845,3.933,2.534,3.933,1.02,0,2.301-.575,3.846-1.726,1.543-1.15,3.742-3.081,6.598-5.79v3.189c-6.292,8.127-11.143,12.19-14.55,12.19-1.37,0-2.354-.523-2.95-1.572s-.896-2.606-.896-4.676c0-2.796.35-5.811,1.049-9.044Zm3.233-10.661c-2.593.873-5.637,2.279-9.132,4.216-3.496,1.938-5.608,3.271-6.336,3.998-.641.583-1.209,1.676-1.704,3.277-.495,1.603-.742,2.812-.742,3.626,0,.496.146.903.437,1.224.291.321.655.48,1.093.48.407,0,.873-.175,1.397-.524.524-.349,1.361-1.033,2.513-2.053,1.15-1.02,1.9-1.675,2.25-1.967.495-.437,1.595-1.376,3.299-2.818,1.704-1.441,2.949-2.57,3.736-3.386.786-.815,1.456-1.727,2.01-2.731.553-1.005.946-2.119,1.18-3.342Z"/>
            </g>
            <g class="cls-14">
              <g>
                <g>
                  <path class="cls-8" d="m375.608,340.067h-50.963l2.904-20.117h123.385l-2.906,20.117h-50.963l-19.223,138.136h-21.457l19.223-138.136Z"/>
                  <path class="cls-8" d="m375.608,340.067h-50.963l2.904-20.117h123.385l-2.906,20.117h-50.963l-19.223,138.136h-21.457l19.223-138.136Z"/>
                  <path class="cls-8" d="m375.608,340.067h-50.963l2.904-20.117h123.385l-2.906,20.117h-50.963l-19.223,138.136h-21.457l19.223-138.136Z"/>
                </g>
                <g>
                  <path class="cls-8" d="m450.932,319.952h93.012c-.97,6.71-1.94,13.42-2.91,20.129h-93.006"/>
                  <path class="cls-8" d="m450.932,319.952h93.012c-.97,6.71-1.94,13.42-2.91,20.129h-93.006"/>
                </g>
                <polygon class="cls-8" points="327.551 319.95 278.613 319.95 275.703 340.081 324.642 340.081 327.551 319.95"/>
              </g>
            </g>
          </g>
          <g>
            <g>
              <path class="cls-8" d="m497.058,319.952h93.012c-.97,6.71-1.94,13.42-2.91,20.129h-93.006"/>
              <path class="cls-8" d="m497.058,319.952h93.012c-.97,6.71-1.94,13.42-2.91,20.129h-93.006"/>
            </g>
            <g>
              <path class="cls-8" d="m547.611,473.769c4.41-30.689,8.819-61.378,13.229-92.067,6.504,1.914,13.007,3.829,19.511,5.743-4.409,30.687-8.819,61.374-13.228,92.061"/>
              <path class="cls-8" d="m547.611,473.769c4.41-30.689,8.819-61.378,13.229-92.067,6.504,1.914,13.007,3.829,19.511,5.743-4.409,30.687-8.819,61.374-13.228,92.061"/>
            </g>
            <g>
              <path class="cls-8" d="m556.49,412.019c4.41-30.689,8.819-61.378,13.229-92.067,6.504,1.914,13.007,3.829,19.511,5.743-4.409,30.687-8.819,61.374-13.228,92.061"/>
              <path class="cls-8" d="m556.49,412.019c4.41-30.689,8.819-61.378,13.229-92.067,6.504,1.914,13.007,3.829,19.511,5.743-4.409,30.687-8.819,61.374-13.228,92.061"/>
            </g>
            <g>
              <path class="cls-8" d="m214.569,473.769c4.41-30.689,8.819-61.378,13.229-92.067,6.504,1.914,13.007,3.829,19.511,5.743-4.409,30.687-8.819,61.374-13.228,92.061"/>
              <path class="cls-8" d="m214.569,473.769c4.41-30.689,8.819-61.378,13.229-92.067,6.504,1.914,13.007,3.829,19.511,5.743-4.409,30.687-8.819,61.374-13.228,92.061"/>
            </g>
            <g>
              <path class="cls-8" d="m223.448,412.02c4.41-30.689,8.819-61.378,13.229-92.067,6.504,1.914,13.007,3.829,19.511,5.743-4.409,30.687-8.819,61.374-13.228,92.061"/>
              <path class="cls-8" d="m223.448,412.02c4.41-30.689,8.819-61.378,13.229-92.067,6.504,1.914,13.007,3.829,19.511,5.743-4.409,30.687-8.819,61.374-13.228,92.061"/>
            </g>
            <g>
              <path class="cls-8" d="m215.761,465.483h93.012c-.97,6.71-1.94,13.42-2.91,20.129h-93.006"/>
              <path class="cls-8" d="m215.761,465.483h93.012c-.97,6.71-1.94,13.42-2.91,20.129h-93.006"/>
            </g>
            <g>
              <path class="cls-8" d="m308.744,465.483h93.012c-.97,6.71-1.94,13.42-2.91,20.129h-93.006"/>
              <path class="cls-8" d="m308.744,465.483h93.012c-.97,6.71-1.94,13.42-2.91,20.129h-93.006"/>
            </g>
            <g>
              <path class="cls-8" d="m398.602,465.483h93.012c-.97,6.71-1.94,13.42-2.91,20.129h-93.006"/>
              <path class="cls-8" d="m398.602,465.483h93.012c-.97,6.71-1.94,13.42-2.91,20.129h-93.006"/>
            </g>
            <g>
              <path class="cls-8" d="m476.124,465.483h93.012c-.97,6.71-1.94,13.42-2.91,20.129h-93.006"/>
              <path class="cls-8" d="m476.124,465.483h93.012c-.97,6.71-1.94,13.42-2.91,20.129h-93.006"/>
            </g>
            <g>
              <path class="cls-8" d="m236.688,319.952h93.012c-.97,6.71-1.94,13.42-2.91,20.129h-93.006"/>
              <path class="cls-8" d="m236.688,319.952h93.012c-.97,6.71-1.94,13.42-2.91,20.129h-93.006"/>
            </g>
          </g>
        </g>
      </g>
      <g class="cls-13">
        <path class="cls-11" d="m313.923,344.28c4.41-30.689,8.819-61.378,13.229-92.067,3.183,1.437,6.365,2.875,9.548,4.312-4.409,30.687-8.819,61.374-13.228,92.061"/>
        <path class="cls-11" d="m447.009,347.837c4.41-30.689,8.819-61.378,13.229-92.067,3.183,1.437,6.365,2.875,9.548,4.312-4.409,30.687-8.819,61.374-13.228,92.061"/>
      </g>
    </g>
  </g>
  <circle class="cls-3" cx="400" cy="400" r="259.217" transform="translate(-165.685 400) rotate(-45)"/>
</svg>